<?xml version="1.0" encoding="iso-8859-1"?>
<!-- Generator: Adobe Illustrator 19.0.0, SVG Export Plug-In . SVG Version: 6.00 Build 0)  -->
<svg version="1.1" id="Layer_1" xmlns="http://www.w3.org/2000/svg" xmlns:xlink="http://www.w3.org/1999/xlink" x="0px" y="0px"
	 viewBox="0 0 496.2 496.2" style="enable-background:new 0 0 496.2 496.2;" xml:space="preserve">
<path style="fill:#334D5C;" d="M496.2,248.1C496.2,111.1,385.1,0,248.1,0S0,111.1,0,248.1s111.1,248.1,248.1,248.1
	S496.2,385.1,496.2,248.1z"/>
<g>
	<path style="fill:#CECECE;" d="M444.4,232.3l-96.3-75.7c0,0-9.7-5.6-13.6,4.9c0,0-9.8,28.5-12.7,38.6c-4.6,14.2,5.4,28.6,14.6,8.9
		l8.4-19.6l30.4,29.3c0,0,4.6,3.3,5.6,13.8L444.4,232.3z"/>
	<path style="fill:#CECECE;" d="M51.5,232.3l96.3-75.8c0,0,9.7-5.6,13.6,4.9c0,0,9.8,28.5,12.7,38.6c4.6,14.2-5.4,28.6-14.6,8.9
		l-8.4-19.6l-30.4,29.3c0,0-4.6,3.3-5.6,13.8L51.5,232.3z"/>
</g>
<path style="fill:#E5E5E5;" d="M441.7,231.5H54.5c-3.5,0-6.3,3-6.3,6.8v96.1c0,3.8,2.8,6.8,6.3,6.8h157.2c4,0,6.8-2.6,7.8-6
	c8.2-29.1,21.8-36.1,28.6-36.1s20.6,6.8,28.8,36.5c0.8,2.8,3,5.6,7.6,5.6h157.2c3.5,0,6.3-3,6.3-6.8v-96.1
	C448,234.5,445.2,231.5,441.7,231.5z"/>
<path style="fill:#CE0F1E;" d="M424.7,288.1c0,19.5-12.9,35.2-28.8,35.2h-66.5c-15.9,0-28.8-15.8-28.8-35.2v-2.9
	c0-19.5,12.9-35.2,28.8-35.2h66.5c15.9,0,28.8,15.8,28.8,35.2V288.1z"/>
<path style="fill:#E21730;" d="M329.4,323.3c-15.9,0-28.8-15.8-28.8-35.2v-2.9c0-19.5,12.9-35.2,28.8-35.2h66.5L329.4,323.3z"/>
<path style="fill:#03BECD;" d="M197,288.1c0,19.5-12.9,35.2-28.8,35.2h-66.5c-15.9,0-28.8-15.8-28.8-35.2v-2.9
	c0-19.5,12.9-35.2,28.8-35.2h66.5c15.9,0,28.8,15.8,28.8,35.2V288.1z"/>
<path style="fill:#0ED3D8;" d="M101.6,323.3c-15.9,0-28.8-15.8-28.8-35.2v-2.9c0-19.5,12.9-35.2,28.8-35.2h66.5L101.6,323.3z"/>
<g>
</g>
<g>
</g>
<g>
</g>
<g>
</g>
<g>
</g>
<g>
</g>
<g>
</g>
<g>
</g>
<g>
</g>
<g>
</g>
<g>
</g>
<g>
</g>
<g>
</g>
<g>
</g>
<g>
</g>
</svg>
